<svg width="144" height="24" viewBox="0 0 144 24" fill="none" xmlns="http://www.w3.org/2000/svg">
<path d="M30.722 5.03635H41.8237V7.84744H38.0178V19.4295H34.521V7.84744H30.722V5.03635Z" fill="#0D0C22"/>
<path d="M48.6524 19.5949C45.2999 19.5949 42.8817 17.3419 42.8817 13.7109C42.8817 10.0799 45.2587 7.82684 48.6524 7.82684C52.0461 7.82684 54.3338 10.0385 54.3338 13.5248C54.3332 13.868 54.3125 14.2107 54.272 14.5514H46.3579C46.3484 14.8406 46.398 15.1286 46.5035 15.3978C46.6091 15.667 46.7684 15.9117 46.9717 16.1169C47.1751 16.3221 47.4181 16.4834 47.6858 16.591C47.9536 16.6986 48.2404 16.7501 48.5287 16.7425C48.9081 16.7671 49.2859 16.6747 49.6114 16.4776C49.9368 16.2805 50.1944 15.9883 50.3493 15.6401H54.0659C53.7502 16.8205 53.0407 17.8569 52.0557 18.5765C51.0707 19.2961 49.8695 19.6555 48.6524 19.5949V19.5949ZM46.3785 12.6016H50.7546C50.7536 12.3276 50.6962 12.0569 50.5857 11.8063C50.4753 11.5557 50.3144 11.3308 50.113 11.1457C49.9117 10.9606 49.6743 10.8193 49.4158 10.7307C49.1574 10.6422 48.8834 10.6082 48.6112 10.6311C48.0589 10.6128 47.5204 10.8065 47.1055 11.1726C46.6906 11.5388 46.4306 12.0498 46.3785 12.6016V12.6016Z" fill="#0D0C22"/>
<path d="M60.5102 7.82678C61.2005 7.79208 61.888 7.9384 62.5048 8.25132C63.1216 8.56424 63.6464 9.03296 64.0276 9.61128V7.99214H67.5244V19.4295H64.0276V17.8103C63.6402 18.3874 63.1112 18.8547 62.4916 19.1672C61.8719 19.4798 61.1824 19.627 60.4896 19.5948C57.7072 19.5948 55.4814 17.3005 55.4814 13.6901C55.4814 10.0798 57.7073 7.82678 60.5102 7.82678ZM61.5407 10.879C60.2285 10.879 59.0469 11.8643 59.0469 13.6901C59.0469 15.516 60.2285 16.5426 61.5407 16.5426C62.8528 16.5426 64.0344 15.5366 64.0344 13.7108C64.0344 11.885 62.8597 10.879 61.5407 10.879Z" fill="#0D0C22"/>
<path d="M75.0882 7.82684C77.9461 7.82684 79.9727 9.40464 80.5841 12.1331H76.8675C76.7564 11.74 76.5161 11.3961 76.1857 11.1572C75.8552 10.9184 75.4539 10.7985 75.047 10.8171C73.7966 10.8171 72.9379 11.8023 72.9379 13.7109C72.9379 15.6194 73.7966 16.5978 75.047 16.5978C75.4543 16.6231 75.8579 16.5067 76.1896 16.2682C76.5212 16.0297 76.7607 15.6837 76.8675 15.2887H80.5841C80.3432 16.5522 79.6533 17.685 78.6426 18.477C77.6318 19.269 76.3688 19.6662 75.0882 19.5949C71.7357 19.5949 69.3587 17.3419 69.3587 13.7109C69.3587 10.0799 71.7357 7.82684 75.0882 7.82684Z" fill="#0D0C22"/>
<path d="M82.4256 4.25781H85.9224V9.52863C86.3321 8.98835 86.8658 8.55527 87.4782 8.26618C88.0906 7.97709 88.7635 7.84055 89.4397 7.86815C92.0366 7.86815 93.7746 9.67332 93.7746 12.7462V19.4295H90.2985V13.2285C90.2985 11.6714 89.4397 10.8102 88.1138 10.8102C86.788 10.8102 85.9224 11.6714 85.9224 13.2285V19.4295H82.4256V4.25781Z" fill="#0D0C22"/>
<path d="M111.932 13.2148C111.969 12.9119 111.939 12.6045 111.844 12.3146C111.749 12.0248 111.591 11.7597 111.381 11.5384C111.172 11.317 110.916 11.145 110.632 11.0346C110.349 10.9242 110.044 10.8781 109.741 10.8997C108.415 10.8997 107.556 11.7196 107.556 13.2148V19.4157H104.08V13.2148C104.08 11.7196 103.221 10.8997 101.895 10.8997C101.592 10.8781 101.287 10.9242 101.003 11.0346C100.72 11.145 100.464 11.317 100.254 11.5384C100.045 11.7597 99.8868 12.0248 99.7916 12.3146C99.6964 12.6045 99.6663 12.9119 99.7036 13.2148V19.4157H96.2068V7.99217H99.7036V9.42528C100.095 8.91865 100.602 8.5131 101.182 8.24228C101.761 7.97146 102.397 7.8432 103.036 7.86815C103.816 7.83197 104.591 8.01136 105.277 8.38679C105.963 8.76221 106.532 9.31925 106.924 9.99715C107.336 9.34887 107.903 8.81438 108.574 8.44249C109.245 8.0706 109.998 7.87315 110.764 7.86815C113.588 7.86815 115.408 9.67332 115.408 12.7462V19.4295H111.932V13.2148Z" fill="#0D0C22"/>
<path d="M117.531 4.91237C117.495 4.49782 117.585 4.08203 117.788 3.71941C117.992 3.35678 118.3 3.0642 118.672 2.87994C119.044 2.69569 119.462 2.62833 119.873 2.68669C120.284 2.74505 120.668 2.9264 120.974 3.20703C121.28 3.48765 121.495 3.85448 121.59 4.25953C121.685 4.66457 121.656 5.08897 121.507 5.4772C121.358 5.86544 121.095 6.19943 120.753 6.43548C120.412 6.67153 120.007 6.79866 119.592 6.80022C119.332 6.81699 119.071 6.78098 118.825 6.69432C118.579 6.60767 118.354 6.47216 118.161 6.29591C117.969 6.11965 117.814 5.90628 117.705 5.66855C117.597 5.43082 117.538 5.17364 117.531 4.91237V4.91237ZM117.861 7.99218H121.358V19.4295H117.875L117.861 7.99218Z" fill="#0D0C22"/>
<path d="M131.765 13.2147C131.765 11.6576 130.906 10.7964 129.573 10.7964C128.24 10.7964 127.388 11.6576 127.388 13.2147V19.4157H123.892V7.99215H127.388V9.50795C127.79 8.98098 128.311 8.55744 128.909 8.27231C129.506 7.98718 130.162 7.84864 130.823 7.86814C133.461 7.86814 135.22 9.6733 135.22 12.7462V19.4295H131.744L131.765 13.2147Z" fill="#0D0C22"/>
<path d="M138.223 10.8997H136.849V7.99215H138.223V5.17416H141.72V7.93015H143.98V10.8377H141.692V15.5091C141.692 16.1981 141.981 16.4737 142.757 16.4737H144.001V19.4433H142.221C139.851 19.4433 138.196 18.4373 138.196 15.4678L138.223 10.8997Z" fill="#0D0C22"/>
<path fill-rule="evenodd" clip-rule="evenodd" d="M18.5281 0.392566C18.5257 0.326593 18.5077 0.262143 18.4754 0.204605C18.4431 0.147068 18.3976 0.0981182 18.3426 0.0618514C18.2847 0.0298852 18.2197 0.0131226 18.1536 0.0131226C18.0876 0.0131226 18.0226 0.0298852 17.9647 0.0618514L12.3589 2.41822C12.2854 2.44844 12.2226 2.50001 12.1785 2.56631C12.1344 2.6326 12.1111 2.7106 12.1116 2.79027V3.65841C12.1116 3.71231 12.125 3.76537 12.1506 3.81276C12.1762 3.86015 12.2132 3.90038 12.2582 3.92981C12.3032 3.95923 12.3549 3.97692 12.4084 3.98127C12.462 3.98561 12.5159 3.97647 12.565 3.95468L18.2601 1.55008C18.3499 1.5111 18.4264 1.44662 18.4801 1.3646C18.5338 1.28258 18.5624 1.18658 18.5624 1.08845L18.5281 0.392566Z" fill="#1DA1F2"/>
<path fill-rule="evenodd" clip-rule="evenodd" d="M11.0812 2.41823L5.45473 0.00674858C5.40245 -0.00224953 5.34903 -0.00224953 5.29674 0.00674858C5.2186 0.0093796 5.14263 0.0331882 5.0769 0.0756471C5.02092 0.112009 4.97515 0.162109 4.94389 0.221192C4.91264 0.280275 4.89692 0.346382 4.89827 0.413254V1.10225C4.8987 1.20912 4.93013 1.31357 4.98868 1.40287C5.04722 1.49217 5.13039 1.56247 5.22806 1.60522L10.8957 4.03048C10.9432 4.05126 10.9951 4.05975 11.0466 4.05518C11.0982 4.05061 11.1478 4.03312 11.1909 4.00431C11.234 3.97551 11.2691 3.93631 11.2932 3.89032C11.3172 3.84433 11.3294 3.79302 11.3285 3.7411V2.80407C11.3318 2.72207 11.3098 2.64105 11.2655 2.57202C11.2213 2.50299 11.1569 2.4493 11.0812 2.41823Z" fill="#1DA1F2"/>
<path fill-rule="evenodd" clip-rule="evenodd" d="M12.3658 4.93998C12.2928 4.96898 12.2302 5.0193 12.1861 5.08441C12.142 5.14953 12.1185 5.22643 12.1185 5.30515V6.26285C12.119 6.29688 12.128 6.33024 12.1445 6.35998C12.161 6.38972 12.1846 6.41491 12.2131 6.43332C12.2417 6.45172 12.2743 6.46277 12.3081 6.46549C12.3419 6.4682 12.3759 6.4625 12.407 6.44888L18.535 3.79625L18.9334 3.624L19.3387 3.45175L20.5959 2.91433C20.6905 2.87263 20.7708 2.80409 20.8269 2.71716C20.8831 2.63023 20.9126 2.52872 20.9119 2.42515V1.86017C20.912 1.79352 20.8958 1.72787 20.8647 1.669C20.8335 1.61012 20.7884 1.55983 20.7333 1.52256C20.669 1.47721 20.5921 1.45312 20.5135 1.45366C20.4613 1.44326 20.4076 1.44326 20.3555 1.45366L19.3387 1.89462L18.9334 2.05998L18.5281 2.23223L12.3658 4.93998Z" fill="#1DA1F2"/>
<path fill-rule="evenodd" clip-rule="evenodd" d="M11.0811 4.93995L4.89822 2.28731L4.49292 2.11507L4.09445 1.94282L3.07085 1.50186C3.01183 1.47369 2.94727 1.45908 2.88191 1.45908C2.81654 1.45908 2.75203 1.47369 2.69301 1.50186C2.63704 1.53822 2.59122 1.58832 2.55996 1.6474C2.52871 1.70649 2.51303 1.7726 2.51439 1.83947V2.46645C2.51027 2.55217 2.53328 2.637 2.58017 2.70878C2.62707 2.78057 2.69544 2.83563 2.77545 2.86607L4.08758 3.43105L4.49292 3.6033L4.89822 3.78244L10.9918 6.39373C11.029 6.40817 11.0691 6.41339 11.1087 6.40894C11.1483 6.40449 11.1863 6.39051 11.2193 6.36818C11.2524 6.34585 11.2796 6.31583 11.2986 6.2807C11.3176 6.24556 11.3278 6.20633 11.3284 6.16636V5.27067C11.3212 5.19817 11.2943 5.12903 11.2507 5.07074C11.2071 5.01245 11.1485 4.96723 11.0811 4.93995V4.93995Z" fill="#1DA1F2"/>
<path fill-rule="evenodd" clip-rule="evenodd" d="M23.3853 3.23128C23.386 3.16452 23.3701 3.09864 23.3389 3.03967C23.3077 2.98069 23.2622 2.9305 23.2067 2.89367C23.141 2.85121 23.065 2.8274 22.9869 2.82477C22.9318 2.82637 22.8777 2.84051 22.8289 2.86611L21.7228 3.33463L21.3175 3.51376L20.9121 3.68601L19.3458 4.37501L18.9405 4.55415L18.5352 4.7264L12.3523 7.37214C12.2788 7.40033 12.2156 7.45045 12.1714 7.51575C12.1272 7.58105 12.104 7.65838 12.1049 7.73731V11.7059V17.5762C12.0978 17.6079 12.0978 17.6409 12.1049 17.6726V23.6118C12.1036 23.6802 12.1208 23.7478 12.1547 23.8072C12.1885 23.8666 12.2378 23.9158 12.2973 23.9494C12.356 23.9826 12.4222 24 12.4896 24C12.557 24 12.6233 23.9826 12.682 23.9494L23.2204 18.6028C23.2877 18.5689 23.3441 18.5167 23.383 18.4521C23.4219 18.3874 23.4418 18.3131 23.4403 18.2376L23.3853 3.23128Z" fill="#1DA1F2"/>
<path fill-rule="evenodd" clip-rule="evenodd" d="M11.0812 7.35147L4.89832 4.69194L4.49302 4.5128L4.08767 4.34745L2.51448 3.65845L2.11602 3.47931L1.71068 3.30706L0.604632 2.83165C0.550121 2.8217 0.494273 2.8217 0.439761 2.83165C0.363247 2.83115 0.288596 2.8553 0.226796 2.90055C0.169622 2.93446 0.122374 2.98289 0.0898094 3.04095C0.0572446 3.09901 0.0405006 3.16466 0.0412958 3.23127L7.81209e-05 18.2376C-0.00141225 18.3131 0.0184489 18.3874 0.0573552 18.4521C0.0962615 18.5167 0.152626 18.5689 0.21992 18.6028L10.7515 23.9494C10.8114 23.9825 10.8788 23.9999 10.9473 23.9999C11.0157 23.9999 11.0831 23.9825 11.1431 23.9494C11.2017 23.9131 11.2501 23.8624 11.2837 23.8021C11.3174 23.7418 11.3352 23.674 11.3354 23.6049V7.75797C11.3438 7.67157 11.3234 7.58481 11.2774 7.51126C11.2314 7.43771 11.1624 7.38152 11.0812 7.35147V7.35147Z" fill="#1DA1F2"/>
<path fill-rule="evenodd" clip-rule="evenodd" d="M9.26717 17.7346C9.19908 17.7782 9.12048 17.8026 9.0397 17.8049C8.95891 17.8073 8.879 17.7876 8.80849 17.748C8.73798 17.7084 8.6795 17.6504 8.6393 17.58C8.5991 17.5097 8.57864 17.4298 8.58018 17.3487V9.47353C8.57617 9.39157 8.59506 9.31012 8.63469 9.23833C8.67432 9.16654 8.73312 9.10727 8.80451 9.06717C8.87589 9.02708 8.95704 9.00776 9.03877 9.01139C9.12051 9.01501 9.19959 9.04144 9.26717 9.08769L12.7021 11.0513L16.1027 13.015C16.1697 13.0545 16.2252 13.1109 16.2637 13.1786C16.3023 13.2463 16.3226 13.3229 16.3226 13.4008C16.3226 13.4787 16.3023 13.5553 16.2637 13.623C16.2252 13.6907 16.1697 13.7471 16.1027 13.7866L12.709 15.7572L9.26717 17.7346Z" fill="white"/>
</svg>
